<?xml version="1.0" encoding="utf-8"?>
<!-- Generator: Adobe Illustrator 19.0.0, SVG Export Plug-In . SVG Version: 6.00 Build 0)  -->
<svg version="1.1" id="Layer_1" xmlns="http://www.w3.org/2000/svg" xmlns:xlink="http://www.w3.org/1999/xlink" x="0px" y="0px"
	 viewBox="0 0 612 792" style="enable-background:new 0 0 612 792;" xml:space="preserve">
<style type="text/css">
	.st0{fill:url(#XMLID_2_);}
	.st1{fill:url(#XMLID_3_);}
</style>
<linearGradient id="XMLID_2_" gradientUnits="userSpaceOnUse" x1="1568.01" y1="183" x2="2216.6499" y2="183">
	<stop  offset="0" style="stop-color:#4D2662"/>
	<stop  offset="0.2128" style="stop-color:#512863"/>
	<stop  offset="0.4751" style="stop-color:#5D2E68"/>
	<stop  offset="0.7621" style="stop-color:#713871"/>
	<stop  offset="1" style="stop-color:#87447B"/>
</linearGradient>
<path id="XMLID_12_" class="st0" d="M2216.6,42.5v238c0,23.8-19.3,43.1-43.1,43.1c-181.1-69.3-381.4-69.3-562.5,0
	c-11.9,0-22.7-4.8-30.5-12.6s-12.6-18.6-12.6-30.5v-238H2216.6z"/>
<linearGradient id="XMLID_3_" gradientUnits="userSpaceOnUse" x1="1850.5903" y1="141.2593" x2="2194.49" y2="141.2593">
	<stop  offset="0" style="stop-color:#85457D"/>
	<stop  offset="0.4037" style="stop-color:#84427C"/>
	<stop  offset="0.6677" style="stop-color:#7F3B78"/>
	<stop  offset="0.8909" style="stop-color:#792E72"/>
	<stop  offset="1" style="stop-color:#74246E"/>
</linearGradient>
<path id="XMLID_8_" class="st1" d="M2194.5,42.5c-11.9,61.8-82.8,91.5-126.1,104c-22.1,6.4-42.2,18.5-58.2,35
	c-32.2,33.1-58.4,48.7-78.5,55.5c-27.1,9.2-56.6-2.7-70.2-27.9c-29.9-55.3,8.6-127.2,35.5-166.6H2194.5z"/>
</svg>
